<svg width="213" height="50" viewBox="0 0 213 50" fill="none" xmlns="http://www.w3.org/2000/svg">
<path d="M61.3516 36.1698V32.7587H64.3781V17.0544H61.3516V13.6432H70.5279C73.533 13.6432 75.8298 14.4048 77.4182 15.9281C79.0066 17.4513 79.8008 19.7361 79.8008 22.7826V27.0305C79.8008 30.0769 79.0066 32.3618 77.4182 33.885C75.8298 35.4082 73.533 36.1698 70.5279 36.1698H61.3516ZM68.2419 32.6621H70.5601C72.3846 32.6621 73.7369 32.1901 74.617 31.2462C75.4971 30.3022 75.9371 28.9399 75.9371 27.1592V22.6861C75.9371 20.8625 75.4971 19.4894 74.617 18.5669C73.7369 17.6229 72.3846 17.1509 70.5601 17.1509H68.2419V32.6621Z" fill="black"/>
<path d="M89.8799 36.6204C88.2915 36.6204 86.8641 36.2986 85.5977 35.6549C84.3527 34.9899 83.3653 34.0566 82.6355 32.8552C81.9271 31.6323 81.573 30.1735 81.573 28.4786V27.9637C81.573 26.2689 81.9271 24.81 82.6355 23.5871C83.3653 22.3642 84.3527 21.431 85.5977 20.7874C86.8641 20.1438 88.2915 19.822 89.8799 19.822C91.4684 19.822 92.8851 20.1438 94.13 20.7874C95.375 21.431 96.3517 22.3642 97.06 23.5871C97.7898 24.81 98.1547 26.2689 98.1547 27.9637V28.4786C98.1547 30.1735 97.7898 31.6323 97.06 32.8552C96.3517 34.0566 95.375 34.9899 94.13 35.6549C92.8851 36.2986 91.4684 36.6204 89.8799 36.6204ZM89.8799 33.3379C91.2322 33.3379 92.3377 32.9088 93.1963 32.0507C94.0549 31.1711 94.4842 29.9482 94.4842 28.3821V28.0603C94.4842 26.4941 94.0549 25.282 93.1963 24.4238C92.3377 23.5442 91.2322 23.1044 89.8799 23.1044C88.5276 23.1044 87.4222 23.5442 86.5636 24.4238C85.705 25.282 85.2757 26.4941 85.2757 28.0603V28.3821C85.2757 29.9482 85.705 31.1711 86.5636 32.0507C87.4222 32.9088 88.5276 33.3379 89.8799 33.3379Z" fill="black"/>
<path d="M104.573 42.7347C103.414 42.7347 102.469 42.5524 101.739 42.1877C101.009 41.8444 100.484 41.3831 100.162 40.8039C99.8396 40.2246 99.6786 39.6025 99.6786 38.9374C99.6786 38.1007 99.8718 37.4463 100.258 36.9744C100.645 36.5024 101.031 36.1806 101.417 36.0089V35.5262C101.052 35.3117 100.709 34.9899 100.387 34.5608C100.086 34.1317 99.9362 33.5525 99.9362 32.823C99.9362 32.0721 100.129 31.4822 100.516 31.0531C100.902 30.6025 101.31 30.2807 101.739 30.0877V29.5406L104.186 30.9887C103.907 31.0316 103.65 31.1496 103.414 31.3427C103.177 31.5143 103.059 31.7932 103.059 32.1794C103.059 32.587 103.199 32.8874 103.478 33.0805C103.778 33.2736 104.133 33.3701 104.54 33.3701H109.145C110.969 33.3701 112.354 33.767 113.298 34.5608C114.264 35.3331 114.747 36.4273 114.747 37.8432V38.1007C114.747 39.4952 114.264 40.6108 113.298 41.4475C112.354 42.3056 110.969 42.7347 109.145 42.7347H104.573ZM104.83 39.7419H109.467C110.111 39.7419 110.604 39.5917 110.948 39.2914C111.291 39.0125 111.463 38.6048 111.463 38.0685C111.463 37.5536 111.291 37.146 110.948 36.8456C110.604 36.5667 110.111 36.4273 109.467 36.4273H104.83C104.186 36.4273 103.693 36.5667 103.349 36.8456C103.027 37.146 102.866 37.5536 102.866 38.0685C102.866 38.6048 103.027 39.0125 103.349 39.2914C103.693 39.5917 104.186 39.7419 104.83 39.7419ZM106.569 28.4142C107.406 28.4142 108.093 28.1675 108.63 27.6741C109.188 27.1592 109.467 26.4619 109.467 25.5823C109.467 24.7027 109.188 24.0162 108.63 23.5228C108.093 23.0079 107.406 22.7504 106.569 22.7504C105.753 22.7504 105.066 23.0079 104.508 23.5228C103.972 24.0162 103.703 24.7027 103.703 25.5823C103.703 26.4619 103.972 27.1592 104.508 27.6741C105.066 28.1675 105.753 28.4142 106.569 28.4142ZM106.569 31.4071C105.388 31.4071 104.315 31.1925 103.349 30.7634C102.405 30.3344 101.653 29.6908 101.095 28.8326C100.559 27.9744 100.29 26.9125 100.29 25.6467V25.518C100.29 24.2736 100.559 23.2331 101.095 22.3964C101.653 21.5383 102.405 20.8947 103.349 20.4656C104.294 20.0365 105.356 19.822 106.537 19.822C107.03 19.822 107.503 19.8756 107.953 19.9829C108.404 20.0687 108.791 20.1652 109.113 20.2725H114.554V23.1044H111.914V23.5871C112.107 23.8875 112.268 24.2415 112.397 24.6491C112.525 25.0353 112.59 25.4751 112.59 25.9685C112.59 27.7063 112.032 29.0471 110.916 29.9911C109.821 30.9351 108.372 31.4071 106.569 31.4071Z" fill="black"/>
<path d="M123.3 36.6204C121.712 36.6204 120.306 36.2878 119.082 35.6228C117.88 34.9362 116.936 33.9815 116.249 32.7587C115.584 31.5143 115.251 30.0662 115.251 28.4142V28.0281C115.251 26.3547 115.584 24.9065 116.249 23.6837C116.914 22.4608 117.848 21.5168 119.05 20.8517C120.252 20.1652 121.637 19.822 123.204 19.822C124.749 19.822 126.102 20.1652 127.261 20.8517C128.42 21.5168 129.321 22.4608 129.965 23.6837C130.609 24.9065 130.931 26.3332 130.931 27.9637V29.2831H118.986C119.029 30.5275 119.469 31.5251 120.306 32.2759C121.143 33.0268 122.173 33.4023 123.397 33.4023C124.599 33.4023 125.49 33.1448 126.069 32.6299C126.649 32.0936 127.089 31.4929 127.389 30.8278L130.448 32.4047C130.148 32.9839 129.708 33.6061 129.128 34.2712C128.57 34.9148 127.819 35.4726 126.874 35.9446C125.93 36.3951 124.739 36.6204 123.3 36.6204ZM119.018 26.4834H127.164C127.078 25.4322 126.67 24.5955 125.941 23.9733C125.232 23.3511 124.309 23.04 123.172 23.04C121.991 23.04 121.047 23.3511 120.338 23.9733C119.63 24.5955 119.19 25.4322 119.018 26.4834Z" fill="black"/>
<path d="M140.882 36.6204C139.337 36.6204 137.941 36.2986 136.696 35.6549C135.451 35.0113 134.464 34.0781 133.734 32.8552C133.026 31.6323 132.672 30.1627 132.672 28.4464V27.9959C132.672 26.2796 133.026 24.81 133.734 23.5871C134.464 22.3642 135.451 21.431 136.696 20.7874C137.941 20.1438 139.337 19.822 140.882 19.822C142.406 19.822 143.705 20.0901 144.778 20.6265C145.873 21.1628 146.753 21.903 147.418 22.847C148.084 23.7695 148.513 24.81 148.706 25.9685L145.132 26.7087C145.046 26.0436 144.842 25.4429 144.52 24.9065C144.198 24.3487 143.737 23.9089 143.136 23.5871C142.556 23.2653 141.837 23.1044 140.979 23.1044C140.099 23.1044 139.304 23.2975 138.596 23.6837C137.909 24.0484 137.362 24.6062 136.954 25.3571C136.568 26.108 136.374 27.009 136.374 28.0603V28.3821C136.374 29.4333 136.568 30.3344 136.954 31.0853C137.362 31.8147 137.909 32.3725 138.596 32.7587C139.304 33.1448 140.099 33.3379 140.979 33.3379C142.288 33.3379 143.275 33.0054 143.941 32.3403C144.628 31.6538 145.057 30.7742 145.229 29.7015L148.803 30.5382C148.545 31.6538 148.084 32.6728 147.418 33.5954C146.753 34.5179 145.873 35.258 144.778 35.8158C143.705 36.3522 142.406 36.6204 140.882 36.6204Z" fill="black"/>
<path d="M151.117 36.1698V13.6432H154.819V22.3642H155.367C155.538 21.9995 155.817 21.6348 156.204 21.2701C156.59 20.9054 157.095 20.605 157.717 20.369C158.361 20.133 159.166 20.015 160.132 20.015C161.355 20.015 162.439 20.2939 163.384 20.8517C164.328 21.3881 165.058 22.1497 165.573 23.1366C166.11 24.1235 166.378 25.2927 166.378 26.6443V36.1698H162.676V26.9339C162.676 25.6467 162.354 24.692 161.71 24.0698C161.087 23.4262 160.196 23.1044 159.037 23.1044C157.728 23.1044 156.698 23.5442 155.946 24.4238C155.195 25.282 154.819 26.5156 154.819 28.1246V36.1698H151.117Z" fill="black"/>
<path d="M176.142 36.6204C174.832 36.6204 173.62 36.3093 172.503 35.6871C171.409 35.0435 170.529 34.1103 169.863 32.8874C169.198 31.6645 168.865 30.1949 168.865 28.4786V27.9637C168.865 26.2474 169.198 24.7778 169.863 23.5549C170.529 22.3321 171.419 21.4095 172.536 20.7874C173.652 20.1438 174.854 19.822 176.142 19.822C177.644 19.822 178.793 20.0794 179.587 20.5943C180.381 21.1092 180.971 21.6992 181.358 22.3642H181.905V20.2725H185.511V32.1472C185.511 32.7908 185.812 33.1126 186.413 33.1126H187.733V36.1698H184.739C183.966 36.1698 183.333 35.9553 182.839 35.5262C182.367 35.0971 182.131 34.5072 182.131 33.7563V33.6597H181.583C181.218 34.4535 180.617 35.1508 179.78 35.7515C178.943 36.3307 177.73 36.6204 176.142 36.6204ZM177.236 33.4023C178.589 33.4023 179.694 32.9732 180.553 32.115C181.433 31.2354 181.873 29.9911 181.873 28.3821V28.0603C181.873 26.4298 181.433 25.1854 180.553 24.3273C179.673 23.4691 178.567 23.04 177.236 23.04C175.906 23.04 174.789 23.4691 173.888 24.3273C173.008 25.1854 172.568 26.4298 172.568 28.0603V28.3821C172.568 29.9911 173.008 31.2354 173.888 32.115C174.789 32.9732 175.906 33.4023 177.236 33.4023Z" fill="black"/>
<path d="M189.637 36.1698V20.2725H193.34V36.1698H189.637ZM191.472 18.2451C190.807 18.2451 190.227 18.0306 189.733 17.6015C189.261 17.1509 189.025 16.561 189.025 15.8315C189.025 15.1021 189.261 14.5228 189.733 14.0938C190.227 13.6432 190.807 13.418 191.472 13.418C192.18 13.418 192.76 13.6432 193.211 14.0938C193.683 14.5228 193.919 15.1021 193.919 15.8315C193.919 16.561 193.683 17.1509 193.211 17.6015C192.76 18.0306 192.18 18.2451 191.472 18.2451Z" fill="black"/>
<path d="M196.744 36.1698V20.2725H200.383V22.493H200.93C201.209 21.8923 201.713 21.3237 202.443 20.7874C203.173 20.251 204.278 19.9829 205.76 19.9829C206.983 19.9829 208.067 20.2618 209.012 20.8196C209.956 21.3774 210.686 22.1497 211.201 23.1366C211.738 24.1235 212.006 25.2927 212.006 26.6443V36.1698H208.303V26.9339C208.303 25.6467 207.981 24.692 207.337 24.0698C206.715 23.4262 205.824 23.1044 204.665 23.1044C203.355 23.1044 202.325 23.5442 201.574 24.4238C200.823 25.282 200.447 26.5156 200.447 28.1246V36.1698H196.744Z" fill="black"/>
<path fill-rule="evenodd" clip-rule="evenodd" d="M16.6107 15.957C15.2382 15.957 9.0702 15.957 7.53197 15.957C7.33913 15.957 7.18359 16.1133 7.18359 16.306V20.1447C7.18359 20.3374 7.33991 20.4937 7.53275 20.4937H9.27851C9.47134 20.4937 9.62766 20.6499 9.62766 20.8426V29.7414C9.62766 29.9341 9.47134 30.0903 9.27851 30.0903H7.53275C7.33991 30.0903 7.18359 30.2466 7.18359 30.4393V34.1035C7.18359 34.2962 7.33991 34.4525 7.53275 34.4525H16.6107C18.8802 34.4525 25.3395 34.4525 25.3395 25.2048C25.3395 15.9571 16.8728 15.957 16.6107 15.957ZM16.087 20.3192H15.2141C15.0213 20.3192 14.865 20.4754 14.865 20.6681V29.7414C14.865 29.9341 15.0213 30.0903 15.2141 30.0903H16.087C16.698 30.0903 19.5785 30.0903 19.5785 25.2048C19.5785 20.3192 16.5234 20.3192 16.087 20.3192Z" fill="url(#paint0_angular_341_2224)"/>
<path d="M43.9356 28.3202C44.0405 28.337 44.1521 28.3342 44.2473 28.3812C44.3814 28.4475 44.4639 28.5972 44.4291 28.7553C43.6139 32.4667 40.81 34.4525 35.9887 34.4525C28.3073 34.4525 26.7362 30.0903 26.7362 25.2048C26.7362 18.9233 30.8787 15.957 35.9887 15.957C39.818 15.957 43.2188 17.9332 44.3112 21.6343C44.359 21.7964 44.2782 21.956 44.1399 22.0265C44.0428 22.0759 43.928 22.0729 43.8205 22.0906L39.9902 22.722C39.8289 22.7486 39.6571 22.7789 39.5112 22.7053C39.385 22.6417 39.2842 22.5291 39.2314 22.3911C38.7524 21.1378 37.6402 20.3192 35.9887 20.3192C33.2891 20.3192 32.4972 22.5065 32.4972 25.2048C32.4972 27.903 33.2891 30.0903 35.9887 30.0903C37.6402 30.0903 38.7524 29.2717 39.2314 28.0184C39.2849 27.8784 39.3879 27.7645 39.5167 27.7014C39.6598 27.6314 39.8269 27.6602 39.9842 27.6855L43.9356 28.3202Z" fill="url(#paint1_angular_341_2224)"/>
<path fill-rule="evenodd" clip-rule="evenodd" d="M50.0254 25.1884C49.9241 38.9088 38.7645 50 25.0131 50C11.1987 50 0 38.8071 0 25C0 11.1929 11.1987 0 25.0131 0C38.8274 0 50.0261 11.1929 50.0261 25C50.0261 25.0343 50.0261 25.0685 50.0259 25.1027C50.0261 25.1128 50.0261 25.1229 50.0261 25.133C50.0261 25.1516 50.0259 25.17 50.0254 25.1884ZM47.3652 25C47.3652 37.3383 37.3578 47.3404 25.0131 47.3404C12.6683 47.3404 2.66096 37.3383 2.66096 25C2.66096 12.6617 12.6683 2.65957 25.0131 2.65957C37.3578 2.65957 47.3652 12.6617 47.3652 25Z" fill="url(#paint2_angular_341_2224)"/>
<defs>
<radialGradient id="paint0_angular_341_2224" cx="0" cy="0" r="1" gradientUnits="userSpaceOnUse" gradientTransform="translate(26.0722 25.2048) rotate(90) scale(9.24772 18.8886)">
<stop stop-color="#FBF55C"/>
<stop offset="0.117867" stop-color="#D0A963"/>
<stop offset="0.252581" stop-color="#7B6FFC"/>
<stop offset="0.373484" stop-color="#41C3B6"/>
<stop offset="0.5" stop-color="#7CFB5C"/>
<stop offset="0.627446" stop-color="#D4C751"/>
<stop offset="0.751201" stop-color="#FB5C5C"/>
<stop offset="0.867598" stop-color="#EC8A3A"/>
<stop offset="1" stop-color="#FBF55C"/>
</radialGradient>
<radialGradient id="paint1_angular_341_2224" cx="0" cy="0" r="1" gradientUnits="userSpaceOnUse" gradientTransform="translate(26.0722 25.2048) rotate(90) scale(9.24772 18.8886)">
<stop stop-color="#FBF55C"/>
<stop offset="0.117867" stop-color="#D0A963"/>
<stop offset="0.252581" stop-color="#7B6FFC"/>
<stop offset="0.373484" stop-color="#41C3B6"/>
<stop offset="0.5" stop-color="#7CFB5C"/>
<stop offset="0.627446" stop-color="#D4C751"/>
<stop offset="0.751201" stop-color="#FB5C5C"/>
<stop offset="0.867598" stop-color="#EC8A3A"/>
<stop offset="1" stop-color="#FBF55C"/>
</radialGradient>
<radialGradient id="paint2_angular_341_2224" cx="0" cy="0" r="1" gradientUnits="userSpaceOnUse" gradientTransform="translate(25.0131 25) rotate(90) scale(25 25.0131)">
<stop stop-color="#FBF55C"/>
<stop offset="0.117867" stop-color="#D0A963"/>
<stop offset="0.252581" stop-color="#7B6FFC"/>
<stop offset="0.373484" stop-color="#41C3B6"/>
<stop offset="0.5" stop-color="#7CFB5C"/>
<stop offset="0.627446" stop-color="#D4C751"/>
<stop offset="0.751201" stop-color="#FB5C5C"/>
<stop offset="0.867598" stop-color="#EC8A3A"/>
<stop offset="1" stop-color="#FBF55C"/>
</radialGradient>
</defs>
</svg>
