<svg width="958" height="254" viewBox="0 0 958 254" fill="none" xmlns="http://www.w3.org/2000/svg">
<path d="M93 47C48.8172 47 13 82.8172 13 127C13 171.183 48.8172 207 93 207C137.183 207 173 171.183 173 127C173 82.8172 137.183 47 93 47Z" stroke="black" stroke-width="4"/>
<path d="M30.5249 121.768L26.4226 125.871L22.3203 121.768L26.4226 117.666L30.5249 121.768Z" fill="black"/>
<path d="M163.596 120.825L159.494 124.927L155.391 120.825L159.494 116.723L163.596 120.825Z" fill="black"/>
<path d="M19.875 135.506L36.0976 131.461L38.9868 143.049L36.6692 143.627L37.247 145.945L34.9295 146.522L35.5073 148.84L28.5548 150.574L27.9769 148.256L25.6594 148.833L25.0816 146.516L22.7641 147.094L19.875 135.506ZM23.3482 139.563L24.5038 144.198L26.8213 143.621L27.3991 145.939L34.3517 144.205L33.7739 141.887L36.0914 141.31L34.9357 136.674L23.3482 139.563Z" fill="black"/>
<path d="M27.6875 160.656L29.6906 159.356L28.3898 157.352L38.4054 150.848L39.7063 152.852L41.7094 151.551L48.2137 161.566L46.2105 162.867L47.5114 164.871L37.4957 171.375L36.1949 169.372L34.1917 170.673L27.6875 160.656ZM30.9915 161.359L34.894 167.368L44.9097 160.864L41.0071 154.854L30.9915 161.359Z" fill="black"/>
<path d="M43.8429 181.159L45.346 179.303L43.4898 177.8L44.993 175.943L43.1367 174.44L47.6461 168.872L49.5022 170.375L51.0053 168.519L52.8616 170.022L54.3647 168.166L63.6456 175.681L62.1425 177.538L54.7177 171.525L53.2146 173.381L51.3585 171.878L46.8491 177.447L48.7053 178.95L47.2022 180.806L50.9146 183.813L53.9208 180.1L52.0646 178.597L53.5677 176.741L59.1363 181.25L53.1238 188.674L43.8429 181.159Z" fill="black"/>
<path d="M61.7207 193.052L67.439 177.341L83.15 183.059L82.333 185.304L71.1109 181.219L69.4772 185.708L78.4549 188.976L77.6379 191.22L68.6602 187.952L67.0265 192.441L78.2486 196.525L77.4317 198.77L61.7207 193.052Z" fill="black"/>
<path d="M88.9157 199.918V197.53H86.5272V195.141H84.1387V187.976H86.5272V185.587H88.9157V183.199H98.4695V185.587H100.858V187.976H96.0811V185.587H91.3041V187.976H88.9157V195.141H91.3041V197.53H96.0811V195.141H100.858V197.53H98.4695V199.918H88.9157Z" fill="black"/>
<path d="M109.889 198.231L104.088 182.551L108.568 180.894L111.054 187.614L117.774 185.127L115.288 178.406L119.768 176.75L125.569 192.43L121.089 194.088L118.603 187.367L111.883 189.854L114.369 196.574L109.889 198.231Z" fill="black"/>
<path d="M132.955 188.259L125.439 178.978L127.295 177.476L125.792 175.619L127.649 174.116L126.145 172.26L131.714 167.75L133.217 169.606L135.073 168.103L136.577 169.96L138.433 168.456L145.948 177.738L142.236 180.744L139.23 177.031L133.661 181.541L136.667 185.253L132.955 188.259ZM132.158 179.684L137.727 175.175L134.72 171.463L132.864 172.966L131.361 171.11L129.505 172.613L131.008 174.469L129.152 175.973L132.158 179.684Z" fill="black"/>
<path d="M150.73 171.791L148.728 170.49L151.329 166.484L141.314 159.98L138.712 163.986L136.709 162.686L144.514 150.666L146.517 151.967L143.915 155.974L153.931 162.478L156.533 158.472L158.536 159.772L150.73 171.791Z" fill="black"/>
<path d="M161.771 151.87L145.549 147.825L146.704 143.19L149.022 143.768L149.6 141.45L151.917 142.027L152.495 139.71L154.813 140.288L155.39 137.971L148.437 136.237L149.594 131.602L165.816 135.647L164.66 140.282L160.025 139.126L159.448 141.443L157.13 140.866L156.552 143.184L154.235 142.606L153.657 144.923L162.927 147.235L161.771 151.87Z" fill="black"/>
<path d="M102.475 76.563C102.001 77.0657 101.601 77.4983 101.297 77.8315C97.773 77.0624 93.5187 76.6643 89.9438 76.6643C87.2428 76.6643 84.5936 76.8912 82.0143 77.3272C78.1332 76.167 75.076 75.0619 71.3558 71.1522C71.0629 70.8444 70.75 70.5103 70.4199 70.1577C68.5122 68.1203 66.0261 65.4652 63.4727 63.6996C61.9662 62.6581 60.2618 61.7966 58.4831 61.6329C56.5967 61.4593 54.7902 62.0881 53.273 63.6987C50.5947 66.5422 48.2261 72.1881 46.8453 79.4301C45.4697 86.644 45.0278 95.6785 46.3498 105.671C43.9991 111.284 42.7012 117.446 42.7012 123.907C42.7012 133.556 45.5959 142.535 50.5647 150.014C58.1001 166.09 74.4291 177.228 93.363 177.228C115.44 177.228 133.975 162.086 139.16 141.624C142.038 136.417 143.649 130.618 143.649 124.503C143.649 112.06 136.992 100.986 126.619 93.4595C123.629 87.7182 123.496 83.6909 123.352 79.2981C123.325 78.4805 123.297 77.6501 123.251 76.7937C123.204 75.9195 123.181 75.156 123.159 74.4144C123.142 73.8692 123.125 73.3358 123.1 72.7793C123.047 71.5721 122.952 70.3783 122.677 69.3382C122.396 68.2757 121.889 67.2214 120.899 66.4634C119.915 65.7099 118.682 65.4224 117.3 65.4224C116.401 65.4224 115.494 65.7408 114.692 66.1278C113.862 66.5281 112.99 67.078 112.122 67.6994C110.387 68.943 108.53 70.5749 106.845 72.1698C105.153 73.7715 103.602 75.3688 102.475 76.563Z" stroke="black" stroke-width="4"/>
<path d="M57.2324 94.2686C54.6243 85.7286 55.2918 75.2732 57.2325 69.2388C60.6306 80.6122 68.8614 87.3064 68.8614 87.3064C65.4287 88.0516 60.5246 90.9373 57.2324 94.2686Z" fill="black"/>
<path d="M110.628 124.477C113.208 118.972 128.371 117.989 130.761 124.477C132.09 128.086 126.733 136.294 123.163 136.823C118.035 137.582 107.779 130.555 110.628 124.477Z" fill="black"/>
<path d="M108.167 155.344C107.311 154.582 108.383 153.604 109.425 154.08C111.498 155.025 113.862 155.561 116.373 155.561C122.825 155.561 128.315 152.023 130.356 147.082C130.541 146.635 131.207 146.68 131.207 147.164C131.207 153.621 125.191 158.856 117.769 158.856C114.007 158.856 110.606 157.511 108.167 155.344Z" fill="black"/>
<path fill-rule="evenodd" clip-rule="evenodd" d="M54.2656 106.193L148.578 95.0366L149.113 99.5636L144.587 100.099L145.122 104.626L140.595 105.162L141.13 109.689L136.602 110.224L136.604 110.225L137.139 114.752L122.049 116.537L121.514 112.01L121.515 112.009L116.986 112.545L116.451 108.018L111.924 108.553L111.388 104.026L102.334 105.097L102.87 109.624L98.3427 110.16L98.8782 114.687L94.3509 115.222L94.3516 115.222L94.8871 119.749L79.7971 121.534L79.2617 117.007L74.7342 117.543L74.1987 113.016L69.6719 113.551L69.1364 109.024L54.8011 110.72L54.2656 106.193ZM136.068 105.697L140.592 105.162L140.056 100.635L135.529 101.171L136.065 105.697L131.541 106.232L131.541 106.233L132.077 110.759L136.604 110.224L136.068 105.697ZM97.8063 105.63L93.2793 106.165L93.8148 110.692L98.3418 110.157L97.8063 105.63ZM89.2871 111.227L93.8141 110.692L94.3496 115.219L89.8226 115.754L89.2871 111.227Z" fill="black"/>
<path d="M134.574 127.71C138.316 132.642 134.217 141.576 127.114 141.444C125.565 141.415 123.983 141.993 122.922 143.12C117.313 149.079 105.492 149.826 101.832 141.586C101.463 140.755 100.874 140.015 100.06 139.609L97.1562 138.157" stroke="black" stroke-width="4" stroke-linecap="round"/>
<path d="M115.01 148.182C124.152 151.854 129.536 144.789 129.065 142.141L122.718 142.867L115.01 148.182Z" fill="black"/>
<path d="M268.195 146.516H257.453V157.258H246.711V168H193V92.8047H246.711V103.547H257.453V114.289H268.195V146.516ZM246.711 146.516V114.289H235.969V103.547H214.484V157.258H235.969V146.516H246.711ZM343.391 168H289.68V157.258H278.938V103.547H289.68V92.8047H343.391V103.547H354.133V157.258H343.391V168ZM332.648 103.547H300.422V157.258H332.648V103.547ZM440.07 168H386.359V157.258H375.617V146.516H364.875V114.289H375.617V103.547H386.359V92.8047H440.07V103.547H397.102V114.289H386.359V146.516H397.102V157.258H418.586V135.773H407.844V125.031H440.07V168ZM515.266 135.773H472.297V157.258H515.266V168H450.812V92.8047H515.266V103.547H472.297V125.031H515.266V135.773ZM579.719 157.258V146.516H601.203V157.258H590.461V168H547.492V157.258H536.75V146.516H526.008V114.289H536.75V103.547H547.492V92.8047H590.461V103.547H601.203V114.289H579.719V103.547H558.234V114.289H547.492V146.516H558.234V157.258H579.719ZM611.945 92.8047H633.43V125.031H665.656V92.8047H687.141V168H665.656V135.773H633.43V168H611.945V92.8047ZM697.883 114.289H708.625V103.547H719.367V92.8047H751.594V103.547H762.336V114.289H773.078V168H751.594V146.516H719.367V168H697.883V114.289ZM730.109 103.547V114.289H719.367V135.773H751.594V114.289H740.852V103.547H730.109ZM826.789 103.547V157.258H848.273V168H783.82V157.258H805.305V103.547H783.82V92.8047H848.273V103.547H826.789ZM859.016 92.8047H880.5V103.547H891.242V114.289H901.984V125.031H912.727V92.8047H934.211V168H912.727V157.258H901.984V146.516H891.242V135.773H880.5V168H859.016V92.8047Z" fill="black"/>
</svg>
