<svg width="639" height="170" viewBox="0 0 639 170" fill="none" xmlns="http://www.w3.org/2000/svg">
<path d="M196.855 104.023V59.75H228.479V66.0747H234.803V72.3994H241.128V91.3736H234.803V97.6983H228.479V104.023H196.855ZM209.505 97.6983H222.154V91.3736H228.479V72.3994H222.154V66.0747H209.505V97.6983ZM253.778 104.023V97.6983H247.453V66.0747H253.778V59.75H285.401V66.0747H291.726V97.6983H285.401V104.023H253.778ZM260.102 97.6983H279.076V66.0747H260.102V97.6983ZM310.7 104.023V97.6983H304.375V91.3736H298.051V72.3994H304.375V66.0747H310.7V59.75H342.324V66.0747H317.025V72.3994H310.7V91.3736H317.025V97.6983H329.674V85.0488H323.349V78.7241H342.324V104.023H310.7ZM348.648 104.023V59.75H392.921V66.0747H361.298V78.7241H386.597V85.0488H361.298V97.6983H392.921V104.023H348.648ZM409.619 104.023V97.6983H403.294V91.3736H396.969V72.3994H403.294V66.0747H409.619V59.75H434.917V66.0747H441.242V72.3994H428.593V66.0747H415.943V72.3994H409.619V91.3736H415.943V97.6983H428.593V91.3736H441.242V97.6983H434.917V104.023H409.619ZM447.567 104.023V59.75H460.216V78.7241H479.19V59.75H491.84V104.023H479.19V85.0488H460.216V104.023H447.567ZM498.165 104.023V72.3994H504.489V66.0747H510.814V59.75H529.788V66.0747H536.113V72.3994H542.438V104.023H529.788V91.3736H510.814V104.023H498.165ZM510.814 85.0488H529.788V72.3994H523.463V66.0747H517.139V72.3994H510.814V85.0488ZM550.027 104.023V97.6983H562.677V66.0747H550.027V59.75H587.975V66.0747H575.326V97.6983H587.975V104.023H550.027ZM594.3 104.023V59.75H606.95V66.0747H613.275V72.3994H619.599V78.7241H625.924V59.75H638.573V104.023H625.924V91.3736H619.599V85.0488H613.275V78.7241H606.95V104.023H594.3Z" fill="black"/>
<path d="M87.6809 24.1907C87.0092 24.9029 86.4425 25.5158 86.0104 25.9878C81.0191 24.8982 74.992 24.3343 69.9277 24.3343C66.1012 24.3343 62.348 24.6557 58.6941 25.2734C53.1958 23.6298 48.8647 22.0642 43.5943 16.5254C43.1794 16.0893 42.7362 15.616 42.2685 15.1164C39.566 12.2302 36.0439 8.4686 32.4264 5.96753C30.2923 4.49197 27.8778 3.27142 25.3578 3.03957C22.6855 2.79371 20.1262 3.68442 17.9769 5.96619C14.1825 9.9944 10.827 17.993 8.87077 28.2526C6.92213 38.4723 6.29603 51.2712 8.16885 65.4277C4.83866 73.3797 3 82.1091 3 91.262C3 104.932 7.10087 117.652 14.1399 128.249C24.8153 151.021 47.9483 166.801 74.7715 166.801C106.047 166.801 132.307 145.35 139.652 116.362C143.729 108.984 146.011 100.769 146.011 92.1069C146.011 74.478 136.58 58.79 121.886 48.1276C117.648 39.994 117.461 34.2887 117.256 28.0655C117.218 26.9071 117.179 25.7308 117.114 24.5175C117.047 23.2791 117.014 22.1973 116.982 21.1467C116.959 20.3743 116.936 19.6188 116.9 18.8303C116.823 17.1203 116.689 15.4289 116.3 13.9554C115.903 12.4503 115.183 10.9566 113.781 9.88277C112.388 8.81525 110.64 8.40809 108.683 8.40812C107.409 8.40814 106.124 8.85919 104.988 9.40734C103.811 9.97458 102.577 10.7535 101.348 11.6338C98.8894 13.3957 96.2575 15.7075 93.8709 17.967C91.4743 20.236 89.2765 22.4988 87.6809 24.1907Z" stroke="black" stroke-width="4.69534"/>
<path fill-rule="evenodd" clip-rule="evenodd" d="M8 111.957C9.8842 118.547 12.7843 124.711 16.5213 130.271C26.9531 152.554 49.674 168 76.0236 168C106.781 168 132.595 146.953 139.689 118.555C143.742 111.362 146 103.365 146 94.9389C146 86.5023 145.835 80.3164 141.773 73.1174C139.256 72.2749 136.884 76.21 135.171 77.1573C132.527 78.6189 129.367 76.4225 129.356 81.5204C129.349 84.7479 126.003 87.2948 122.896 86.361C113.851 83.6426 105.08 84.0021 97.7381 88.0603C95.8887 89.0826 94.1945 90.3041 92.6568 91.7037C85.6249 98.1044 69.6909 102.237 62.2893 96.2628C47.9834 84.7152 32.6409 80.4562 21.499 86.6152C13.4002 91.092 8.8963 100.313 8 111.957Z" stroke="black" stroke-width="4"/>
<path d="M23.5857 49.2716C19.8909 37.1732 20.8363 22.3614 23.5857 13.8125C28.3998 29.9249 40.0602 39.4085 40.0602 39.4085C35.1972 40.4641 28.2495 44.5522 23.5857 49.2716Z" fill="black"/>
<path d="M99.2309 92.0691C102.886 84.2709 124.367 82.8782 127.753 92.0691C129.637 97.1816 122.047 108.81 116.99 109.559C109.725 110.636 95.1946 100.68 99.2309 92.0691Z" fill="black"/>
<path d="M77.5591 54.6414C74.6404 56.9085 63.7827 57.0998 62.6949 53.7816C61.6072 50.4634 68.6101 43.3215 73.7105 45.5798C77.9632 47.4627 81.3322 51.7107 77.5591 54.6414Z" fill="black"/>
<path d="M111.532 50.2559C109.508 53.2914 104.066 52.9541 101.902 50.2559C99.7389 47.5577 100.073 42.433 105.716 42.8502C110.421 43.198 112.893 48.2158 111.532 50.2559Z" fill="black"/>
<path d="M95.7456 135.795C94.5329 134.717 96.0515 133.331 97.5276 134.004C100.464 135.344 103.814 136.102 107.37 136.102C116.511 136.102 124.289 131.09 127.18 124.091C127.442 123.458 128.385 123.521 128.385 124.207C128.385 133.355 119.862 140.771 109.348 140.771C104.019 140.771 99.2012 138.865 95.7456 135.795Z" fill="black"/>
<path fill-rule="evenodd" clip-rule="evenodd" d="M19.3828 66.1761L152.993 50.3711L153.751 56.7844L147.338 57.5432L148.096 63.9565L141.683 64.7152L142.442 71.1285L136.027 71.8873L136.029 71.8875L136.788 78.3007L115.41 80.8295L114.651 74.4163L114.653 74.4157L108.237 75.1746L107.479 68.7613L101.066 69.5198L100.307 63.1065L87.4806 64.6237L88.2392 71.0369L81.8257 71.7955L82.5844 78.2088L76.1716 78.9675L76.9303 85.3808L55.5527 87.9096L54.7948 81.496L48.3802 82.2548L47.6216 75.8415L41.2084 76.6002L40.4498 70.1871L20.1414 72.5894L19.3828 66.1761ZM74.657 66.1375L81.0703 65.3789L81.829 71.7922L75.4157 72.5508L74.657 66.1375ZM75.4141 72.5488L69.0008 73.3075L69.7594 79.7208L76.1727 78.9621L75.4141 72.5488ZM134.512 59.0555L140.926 58.2969L141.684 64.7102L135.274 65.4685L136.032 71.8801L129.619 72.6387L128.86 66.2254L135.271 65.4671L134.512 59.0555Z" fill="black"/>
<path d="M133.158 96.6367C138.458 103.624 132.652 116.28 122.588 116.094C120.394 116.053 118.154 116.871 116.65 118.468C108.704 126.91 91.9581 127.969 86.7727 116.296C86.2493 115.117 85.415 114.07 84.2618 113.493L80.1484 111.437" stroke="black" stroke-width="4.69534" stroke-linecap="round"/>
<path d="M105.441 125.645C118.393 130.847 126.02 120.838 125.353 117.088L116.361 118.115L105.441 125.645Z" fill="black"/>
<path d="M136.001 71.7586L142.414 71L143.173 77.4133L136.759 78.1719L136.001 71.7586Z" fill="black"/>
<path d="M140.002 64.7577L148.125 63.7969L148.884 70.2102L140.761 71.171L140.002 64.7577Z" fill="black"/>
</svg>
